<svg width="40" height="40" viewBox="0 0 40 40" fill="none" xmlns="http://www.w3.org/2000/svg">
<path d="M31.7639 13.6097H24.3383V11.7653H31.7649V13.6097H31.7639ZM19.3946 21.1733C19.8737 21.9155 20.1131 22.8165 20.1131 23.8745C20.1131 24.9684 19.8431 25.9501 19.2938 26.8168C18.9444 27.3904 18.5107 27.8751 17.9894 28.265C17.4023 28.7162 16.7075 29.0257 15.9083 29.191C15.1071 29.357 14.2394 29.4406 13.3049 29.4406H5V11H13.9058C16.1507 11.0366 17.7421 11.6869 18.682 12.9643C19.2457 13.7477 19.5253 14.6875 19.5253 15.7801C19.5253 16.9076 19.2424 17.8095 18.6731 18.4948C18.3563 18.8791 17.8884 19.2285 17.2689 19.5443C18.2071 19.8877 18.9187 20.4288 19.3946 21.1733ZM9.25287 18.2702H13.155C13.9569 18.2702 14.6053 18.1178 15.1045 17.8132C15.6034 17.5089 15.8523 16.9682 15.8523 16.1917C15.8523 15.3339 15.5227 14.7645 14.8618 14.4905C14.2937 14.3002 13.567 14.2021 12.6851 14.2021H9.25287V18.2702ZM16.228 23.6111C16.228 22.6532 15.8365 21.9909 15.0551 21.6356C14.6181 21.4338 14.0017 21.3304 13.211 21.3231H9.25287V26.2376H13.1498C13.9503 26.2376 14.57 26.1328 15.0172 25.9142C15.8237 25.5121 16.228 24.7472 16.228 23.6111ZM34.5192 20.6112C34.6087 21.2145 34.6496 22.0897 34.6331 23.234H25.0157C25.0687 24.5614 25.5271 25.4897 26.3961 26.0212C26.9203 26.3545 27.5558 26.5171 28.2997 26.5171C29.0844 26.5171 29.7239 26.3189 30.2162 25.9109C30.4846 25.6949 30.7211 25.3896 30.9255 25.0047H34.4507C34.3585 25.7887 33.934 26.584 33.171 27.3921C31.9892 28.6763 30.3318 29.3204 28.2032 29.3204C26.4448 29.3204 24.8951 28.7774 23.55 27.695C22.2094 26.6087 21.536 24.8473 21.536 22.4036C21.536 20.112 22.1406 18.3581 23.3534 17.1374C24.5708 15.9144 26.1422 15.3056 28.0788 15.3056C29.2267 15.3056 30.2617 15.5107 31.1847 15.9233C32.1051 16.3363 32.8658 16.9863 33.4648 17.8793C34.0081 18.6657 34.3565 19.5752 34.5192 20.6112ZM31.0497 20.9553C30.9851 20.0372 30.6786 19.3427 30.1267 18.8679C29.5794 18.3917 28.8958 18.1527 28.0798 18.1527C27.192 18.1527 26.5064 18.4082 26.019 18.9104C25.5287 19.4116 25.2234 20.0929 25.0983 20.9553H31.0497Z" fill="white"/>
</svg>
