<svg width="67" height="45" viewBox="0 0 67 45" fill="none" xmlns="http://www.w3.org/2000/svg">
<g clip-path="url(#clip0_261_189)">
<path fill-rule="evenodd" clip-rule="evenodd" d="M1.00949 45C0.0474605 45 -0.367332 43.7896 0.395195 43.2074L10.7518 35.3002C10.9997 35.1109 11.145 34.818 11.145 34.5076L11.145 10.4924C11.145 10.182 10.9997 9.88905 10.7518 9.6998L0.395192 1.79265C-0.367335 1.21045 0.0474584 -2.07456e-09 1.00949 -4.41261e-08L11.145 -4.87164e-07L65.5512 -2.86533e-06C66.1073 -2.88964e-06 66.5587 0.447697 66.5587 0.999997L66.5587 44C66.5587 44.5523 66.1073 45 65.5512 45L11.145 45L1.00949 45ZM40.897 25.0437C40.2259 25.46 39.3555 24.9812 39.3555 24.1957L39.3555 20.3042C39.3555 19.5188 40.2259 19.0399 40.897 19.4562L44.0336 21.402C44.665 21.7936 44.665 22.7063 44.0336 23.098L40.897 25.0437ZM32.3029 28.5C34.8069 28.5 36.8368 30.067 36.8368 32C36.8368 33.933 34.8069 35.5 32.3029 35.5C29.7989 35.5 27.7691 33.933 27.7691 32C27.7691 30.067 29.7989 28.5 32.3029 28.5ZM32.3029 9C34.8069 9 36.8368 10.567 36.8368 12.5C36.8368 14.433 34.8069 16 32.3029 16C29.7989 16 27.7691 14.433 27.7691 12.5C27.7691 10.567 29.7989 9 32.3029 9Z" fill="white"/>
</g>
<defs>
<clipPath id="clip0_261_189">
<rect width="45" height="67" fill="white" transform="translate(0 45) rotate(-90)"/>
</clipPath>
</defs>
</svg>
