<svg width="30" height="30" viewBox="0 0 30 30" fill="none" xmlns="http://www.w3.org/2000/svg">
<path d="M21.788 22.6615H8.21222C6.44089 22.6615 5 21.2207 5 19.4493V10.8789C5 9.10777 6.44111 7.66666 8.21222 7.66666H21.788C23.5591 7.66666 25 9.10777 25 10.8789V19.4493C25 21.2207 23.5591 22.6615 21.788 22.6615ZM8.21222 8.60599C6.95889 8.60599 5.93933 9.62555 5.93933 10.8789V19.4493C5.93933 20.7027 6.95889 21.7224 8.21222 21.7224H21.788C23.0413 21.7224 24.0609 20.7027 24.0609 19.4493V10.8789C24.0609 9.62555 23.0413 8.60599 21.788 8.60599H8.21222Z" fill="white"/>
<path d="M7.45445 10.9236C9.85534 13.2631 12.2562 15.6025 14.6571 17.942C15.1047 18.378 15.7916 17.6927 15.3433 17.2558C12.9424 14.9165 10.5416 12.5769 8.14067 10.2376C7.69312 9.80134 7.00623 10.4869 7.45445 10.9236Z" fill="white"/>
<path d="M15.3437 17.942C17.7446 15.6026 20.1455 13.2631 22.5464 10.9238C22.9944 10.4871 22.308 9.80131 21.8602 10.2375C19.4593 12.5769 17.0584 14.9164 14.6575 17.2558C14.2095 17.6924 14.896 18.3782 15.3437 17.942Z" fill="white"/>
<path d="M22.5187 19.598C20.9212 18.0829 19.3234 16.568 17.7258 15.0529C17.2727 14.6233 16.5854 15.3082 17.0396 15.7391C18.6372 17.2542 20.2349 18.7691 21.8325 20.2842C22.2856 20.7138 22.9729 20.0287 22.5187 19.598Z" fill="white"/>
<path d="M8.21015 20.284C9.80771 18.7689 11.4055 17.254 13.003 15.7389C13.457 15.3082 12.7701 14.6229 12.3168 15.0527C10.7193 16.5678 9.12148 18.0827 7.52393 19.5978C7.06993 20.0284 7.75682 20.714 8.21015 20.284Z" fill="white"/>
</svg>
