<svg width="20" height="20" viewBox="0 0 20 20" fill="none" xmlns="http://www.w3.org/2000/svg">
<g clip-path="url(#clip0_258_12)">
<path d="M19.2084 7.3421C18.8446 7.3421 18.5498 7.04727 18.5498 6.68351V1.42705H13.2934C12.9296 1.42705 12.6348 1.13222 12.6348 0.768457C12.6348 0.404694 12.9296 0.109863 13.2934 0.109863H19.2084C19.5722 0.109863 19.867 0.404694 19.867 0.768457V6.68351C19.867 7.04727 19.5722 7.3421 19.2084 7.3421Z" fill="white"/>
<path d="M7.3793 13.2572C7.2107 13.2572 7.0421 13.1928 6.91367 13.0642C6.65638 12.8071 6.65638 12.39 6.91367 12.1329L18.7438 0.302831C19.0011 0.0455406 19.4177 0.0455406 19.675 0.302831C19.9323 0.559902 19.9323 0.977012 19.675 1.23408L7.84492 13.0642C7.7165 13.1928 7.5479 13.2572 7.3793 13.2572Z" fill="white"/>
<path d="M16.7637 19.8677H3.21289C1.50164 19.8677 0.109375 18.4754 0.109375 16.7642V3.21338C0.109375 1.50213 1.50164 0.109863 3.21289 0.109863H7.37871C7.74248 0.109863 8.03731 0.404694 8.03731 0.768457C8.03731 1.13222 7.74248 1.42705 7.37871 1.42705H3.21289C2.22785 1.42705 1.42656 2.22834 1.42656 3.21338V16.7644C1.42656 17.7492 2.22785 18.5505 3.21289 18.5505H16.7639C17.7487 18.5505 18.55 17.7492 18.55 16.7642V12.5986C18.55 12.2348 18.8448 11.94 19.2086 11.94C19.5724 11.94 19.8672 12.2348 19.8672 12.5986V16.7644C19.8672 18.4754 18.4749 19.8677 16.7637 19.8677Z" fill="white"/>
</g>
<defs>
<clipPath id="clip0_258_12">
<rect width="20" height="20" fill="white"/>
</clipPath>
</defs>
</svg>
