<svg width="30" height="30" viewBox="0 0 30 30" fill="none" xmlns="http://www.w3.org/2000/svg">
<path d="M11.9075 21.8785C18.1971 21.8785 21.6366 16.6678 21.6366 12.1495C21.6366 12.0013 21.6336 11.8541 21.6268 11.7074C22.2943 11.2248 22.8747 10.6226 23.3327 9.93686C22.7199 10.2091 22.0606 10.3924 21.369 10.4752C22.0749 10.0519 22.6169 9.38205 22.8725 8.58371C22.2116 8.97538 21.4801 9.26038 20.7014 9.41371C20.0773 8.74908 19.1888 8.33334 18.2055 8.33334C16.3169 8.33334 14.7855 9.86483 14.7855 11.7526C14.7855 12.0209 14.8155 12.2819 14.8742 12.5322C12.0323 12.3893 9.51231 11.0285 7.82602 8.95964C7.53213 9.46483 7.36287 10.052 7.36287 10.6783C7.36287 11.8646 7.96657 12.9119 8.88453 13.5246C8.32361 13.5074 7.79676 13.3533 7.33583 13.0969C7.33509 13.1111 7.33509 13.1254 7.33509 13.1404C7.33509 14.7967 8.51398 16.1791 10.0784 16.4926C9.7912 16.5708 9.48898 16.6128 9.17694 16.6128C8.95657 16.6128 8.74231 16.5909 8.53416 16.5511C8.96953 17.9096 10.2318 18.8982 11.7286 18.9261C10.5581 19.8433 9.08379 20.3898 7.48176 20.3898C7.20583 20.3898 6.93361 20.3741 6.66602 20.3424C8.17935 21.3124 9.9762 21.8785 11.9075 21.8785Z" fill="white"/>
</svg>
