<svg width="30" height="30" viewBox="0 0 30 30" fill="none" xmlns="http://www.w3.org/2000/svg">
<path d="M18.1962 23.3333H11.8027C8.97027 23.3333 6.66602 21.0291 6.66602 18.1968V11.8033C6.66602 8.97092 8.97027 6.66666 11.8027 6.66666H18.1962C21.0284 6.66666 23.3327 8.97092 23.3327 11.8033V18.1968C23.3327 21.0291 21.0284 23.3333 18.1962 23.3333ZM11.8027 7.96295C9.68509 7.96295 7.96231 9.68573 7.96231 11.8033V18.1968C7.96231 20.3142 9.68509 22.037 11.8027 22.037H18.1962C20.3136 22.037 22.0364 20.3142 22.0364 18.1968V11.8033C22.0364 9.68573 20.3136 7.96295 18.1962 7.96295H11.8027Z" fill="white"/>
<path d="M15.0464 19.7167C12.4716 19.7167 10.377 17.6219 10.377 15.0472C10.377 12.4726 12.4718 10.3778 15.0464 10.3778C17.621 10.3778 19.7158 12.4726 19.7158 15.0472C19.7158 17.6219 17.6212 19.7167 15.0464 19.7167ZM15.0464 11.6741C13.1864 11.6741 11.6732 13.1872 11.6732 15.0472C11.6732 16.9072 13.1864 18.4204 15.0464 18.4204C16.9064 18.4204 18.4195 16.9072 18.4195 15.0472C18.4197 13.1872 16.9066 11.6741 15.0464 11.6741Z" fill="white"/>
<path d="M19.733 11.2655C20.2339 11.2655 20.6399 10.8595 20.6399 10.3587C20.6399 9.85785 20.2339 9.45184 19.733 9.45184C19.2322 9.45184 18.8262 9.85785 18.8262 10.3587C18.8262 10.8595 19.2322 11.2655 19.733 11.2655Z" fill="white"/>
</svg>
