<svg width="30" height="30" viewBox="0 0 30 30" fill="none" xmlns="http://www.w3.org/2000/svg">
<path d="M6.94009 11.1907H10.3951V22.3037H6.94009V11.1907ZM8.66768 5.66666C9.77194 5.66666 10.6693 6.56406 10.6693 7.67018C10.6693 8.77518 9.77194 9.67258 8.66768 9.67258C7.56083 9.67258 6.66602 8.77518 6.66602 7.67018C6.66602 6.56406 7.56083 5.66666 8.66768 5.66666Z" fill="white"/>
<path d="M12.5625 11.1907H15.8755V12.7104H15.9227C16.3838 11.8363 17.5108 10.9156 19.1906 10.9156C22.6882 10.9156 23.3338 13.2165 23.3338 16.2087V22.3037H19.8814V16.8994C19.8814 15.6104 19.859 13.9528 18.0866 13.9528C16.2892 13.9528 16.0149 15.3578 16.0149 16.8069V22.3037H12.5625V11.1907Z" fill="white"/>
</svg>
