<svg width="40" height="40" viewBox="0 0 40 40" fill="none" xmlns="http://www.w3.org/2000/svg">
<path d="M25.503 34.6367H14.134C9.09744 34.6367 5 30.5393 5 25.503V14.134C5 9.09744 9.09744 5 14.134 5H25.503C30.5393 5 34.6367 9.09744 34.6367 14.134V25.503C34.6367 30.5393 30.5393 34.6367 25.503 34.6367ZM14.134 7.30508C10.3685 7.30508 7.30508 10.3685 7.30508 14.134V25.503C7.30508 29.2682 10.3685 32.3316 14.134 32.3316H25.503C29.2682 32.3316 32.3316 29.2682 32.3316 25.503V14.134C32.3316 10.3685 29.2682 7.30508 25.503 7.30508H14.134Z" fill="white"/>
<path d="M19.9028 28.2055C15.3243 28.2055 11.5996 24.4805 11.5996 19.9023C11.5996 15.3241 15.3246 11.5991 19.9028 11.5991C24.481 11.5991 28.2061 15.3241 28.2061 19.9023C28.2061 24.4805 24.4814 28.2055 19.9028 28.2055ZM19.9028 13.9042C16.5954 13.9042 13.9047 16.5949 13.9047 19.9023C13.9047 23.2098 16.5954 25.9005 19.9028 25.9005C23.2103 25.9005 25.901 23.2098 25.901 19.9023C25.9013 16.5949 23.2106 13.9042 19.9028 13.9042Z" fill="white"/>
<path d="M28.2337 13.1778C29.1243 13.1778 29.8462 12.4558 29.8462 11.5652C29.8462 10.6746 29.1243 9.95262 28.2337 9.95262C27.3431 9.95262 26.6211 10.6746 26.6211 11.5652C26.6211 12.4558 27.3431 13.1778 28.2337 13.1778Z" fill="white"/>
</svg>
