<svg width="130" height="30" viewBox="0 0 130 30" fill="none" xmlns="http://www.w3.org/2000/svg">
<g clip-path="url(#clip0_294_59)">
<path fill-rule="evenodd" clip-rule="evenodd" d="M14.72 7.01001H23.12C27.63 7.01001 29.33 9.29001 29.06 12.65C28.63 18.19 25.28 21.25 20.84 21.25H18.6C17.99 21.25 17.58 21.65 17.42 22.75L16.47 29.1C16.41 29.51 16.19 29.75 15.87 29.78H10.59C10.09 29.78 9.92001 29.4 10.05 28.58L13.26 8.21001C13.39 7.40001 13.83 7.01001 14.72 7.01001Z" fill="#009EE3"/>
<path fill-rule="evenodd" clip-rule="evenodd" d="M51.18 6.63012C54.01 6.63012 56.63 8.17012 56.27 12.0001C55.84 16.5501 53.4 19.0701 49.55 19.0801H46.19C45.71 19.0801 45.47 19.4701 45.35 20.2801L44.7 24.4101C44.6 25.0301 44.28 25.3401 43.81 25.3401H40.68C40.18 25.3401 40.01 25.0201 40.12 24.3101L42.7 7.74012C42.83 6.92012 43.13 6.62012 43.69 6.62012H51.18V6.63012ZM46.08 15.5001H48.63C50.22 15.4401 51.28 14.3401 51.39 12.3501C51.45 11.1201 50.62 10.2401 49.3 10.2501L46.9 10.2601L46.08 15.5001ZM64.77 24.0801C65.06 23.8201 65.35 23.6901 65.31 24.0101L65.21 24.7801C65.16 25.1801 65.32 25.3901 65.69 25.3901H68.47C68.94 25.3901 69.17 25.2001 69.28 24.4801L70.99 13.7301C71.08 13.1901 70.94 12.9301 70.53 12.9301H67.47C67.19 12.9301 67.06 13.0801 66.99 13.5001L66.88 14.1601C66.82 14.5001 66.66 14.5701 66.52 14.2201C66 12.9901 64.68 12.4401 62.83 12.4901C58.54 12.5801 55.66 15.8301 55.35 20.0001C55.11 23.2301 57.42 25.7601 60.47 25.7601C62.68 25.7501 63.67 25.1001 64.77 24.0801ZM62.44 22.4301C60.6 22.4301 59.31 20.9601 59.58 19.1501C59.85 17.3501 61.57 15.8701 63.42 15.8701C65.27 15.8701 66.55 17.3401 66.28 19.1501C66.01 20.9501 64.29 22.4301 62.44 22.4301ZM76.42 12.8901H73.6C73.02 12.8901 72.78 13.3201 72.97 13.8601L76.47 24.1001L73.04 28.9701C72.75 29.3801 72.98 29.7501 73.38 29.7501H76.55C76.59 29.7501 76.62 29.7601 76.66 29.7601C77 29.7601 77.31 29.5801 77.49 29.2901L88.25 13.8601C88.58 13.3901 88.43 12.8901 87.88 12.8901H84.88C84.37 12.8901 84.16 13.0901 83.87 13.5201L79.38 20.0201L77.38 13.5001C77.26 13.1001 76.97 12.8901 76.42 12.8901Z" fill="#113984"/>
<path fill-rule="evenodd" clip-rule="evenodd" d="M99.44 6.63012C102.27 6.63012 104.89 8.17012 104.53 12.0001C104.1 16.5501 101.66 19.0701 97.81 19.0801H94.45C93.97 19.0801 93.73 19.4701 93.61 20.2801L92.96 24.4101C92.86 25.0301 92.54 25.3401 92.07 25.3401H88.94C88.44 25.3401 88.27 25.0201 88.38 24.3101L90.97 7.74012C91.1 6.93012 91.4 6.62012 91.96 6.62012L99.44 6.63012ZM94.35 15.5001H96.9C98.49 15.4401 99.55 14.3401 99.66 12.3501C99.72 11.1201 98.89 10.2401 97.57 10.2501L95.17 10.2601L94.35 15.5001ZM113.03 24.0801C113.32 23.8201 113.61 23.6901 113.57 24.0101L113.47 24.7801C113.42 25.1801 113.58 25.3901 113.95 25.3901H116.73C117.2 25.3901 117.43 25.2001 117.54 24.4801L119.25 13.7301C119.34 13.1901 119.2 12.9301 118.79 12.9301H115.74C115.46 12.9301 115.33 13.0801 115.26 13.5001L115.15 14.1601C115.09 14.5001 114.93 14.5701 114.79 14.2201C114.27 12.9901 112.95 12.4401 111.11 12.4901C106.82 12.5801 103.94 15.8301 103.63 20.0001C103.39 23.2301 105.7 25.7601 108.75 25.7601C110.96 25.7601 111.95 25.1101 113.06 24.0901L113.03 24.0801ZM110.71 22.4301C108.87 22.4301 107.58 20.9601 107.85 19.1501C108.12 17.3501 109.84 15.8701 111.69 15.8701C113.53 15.8701 114.82 17.3401 114.55 19.1501C114.28 20.9501 112.55 22.4301 110.71 22.4301ZM123.52 25.4001H120.31C120.3 25.4001 120.3 25.4001 120.29 25.4001C120.08 25.4001 119.91 25.2301 119.91 25.0201C119.91 25.0001 119.91 24.9801 119.91 24.9701L122.73 7.12012C122.79 6.87012 123.01 6.69012 123.26 6.69012H126.47C126.48 6.69012 126.48 6.69012 126.49 6.69012C126.7 6.69012 126.87 6.86012 126.87 7.07012C126.87 7.09012 126.87 7.11012 126.87 7.12012L124.05 24.9701C124 25.2201 123.78 25.4001 123.52 25.4001Z" fill="#009EE3"/>
<path fill-rule="evenodd" clip-rule="evenodd" d="M9.46999 0H17.88C20.25 0 23.06 0.08 24.93 1.73C26.18 2.84 26.84 4.6 26.69 6.5C26.17 12.92 22.34 16.51 17.19 16.51H13.04C12.33 16.51 11.87 16.98 11.67 18.24L10.51 25.61C10.43 26.09 10.23 26.37 9.85999 26.4H4.67999C4.10999 26.4 3.89999 25.97 4.04999 25.01L7.77999 1.4C7.92999 0.45 8.44999 0 9.46999 0Z" fill="#113984"/>
<path fill-rule="evenodd" clip-rule="evenodd" d="M11.79 17.5L13.26 8.21C13.39 7.4 13.83 7 14.72 7H23.12C24.51 7 25.63 7.22 26.51 7.62C25.67 13.33 21.97 16.51 17.13 16.51H13C12.44 16.51 12.04 16.79 11.79 17.5Z" fill="#172C70"/>
</g>
<defs>
<clipPath id="clip0_294_59">
<rect width="122.88" height="29.77" fill="white" transform="translate(4)"/>
</clipPath>
</defs>
</svg>
