<svg width="40" height="40" viewBox="0 0 40 40" fill="none" xmlns="http://www.w3.org/2000/svg">
<path d="M33.0247 12.4207C31.3308 12.4207 29.7676 11.8596 28.5127 10.9129C27.0733 9.82749 26.039 8.23567 25.6738 6.40083C25.5829 5.94739 25.5345 5.47946 25.5296 5H20.6905V18.2226L20.6846 25.4651C20.6846 27.4014 19.4237 29.0433 17.6758 29.6205C17.1687 29.7882 16.6208 29.8675 16.0501 29.8362C15.322 29.7964 14.6397 29.5764 14.0466 29.2218C12.7844 28.467 11.9289 27.0975 11.9056 25.531C11.869 23.0827 13.8484 21.0868 16.2948 21.0868C16.7778 21.0868 17.2415 21.1655 17.6758 21.3088V17.6951V16.396C17.2178 16.3281 16.7518 16.2929 16.2803 16.2929C13.6024 16.2929 11.0981 17.4059 9.30773 19.4113C7.95465 20.9268 7.14293 22.8601 7.0178 24.8876C6.85381 27.5509 7.8282 30.0825 9.71837 31.9506C9.99596 32.225 10.2877 32.4795 10.5926 32.7143C12.2131 33.9607 14.1942 34.6367 16.2806 34.6367C16.7518 34.6367 17.2181 34.6018 17.6762 34.534C19.6253 34.2452 21.4236 33.3531 22.8428 31.95C24.5868 30.2264 25.5503 27.9382 25.5605 25.5027L25.5355 14.6873C26.3673 15.3291 27.2771 15.8602 28.2532 16.2722C29.7716 16.9126 31.3815 17.2373 33.0382 17.237V13.7234V12.4197C33.0395 12.4207 33.0257 12.4207 33.0247 12.4207Z" fill="white"/>
</svg>
